<svg width="195" height="33" viewBox="0 0 195 33" fill="none" xmlns="http://www.w3.org/2000/svg">
<path fill-rule="evenodd" clip-rule="evenodd" d="M97.7772 29.2239C104.913 29.2239 110.698 23.4389 110.698 16.3028C110.698 9.16665 104.913 3.38169 97.7772 3.38169C90.6411 3.38169 84.8561 9.16665 84.8561 16.3028C84.8561 23.4389 90.6411 29.2239 97.7772 29.2239ZM97.058 11.7286C96.5624 11.3982 95.9251 11.3674 95.4 11.6485C94.8748 11.9295 94.5469 12.4769 94.5469 13.0725V19.5331C94.5469 20.1287 94.8748 20.676 95.4 20.9571C95.9251 21.2381 96.5624 21.2073 97.058 20.8769L101.903 17.6467C102.353 17.3471 102.623 16.8428 102.623 16.3028C102.623 15.7628 102.353 15.2585 101.903 14.9589L97.058 11.7286Z" fill="#8C8C8C"/>
<path d="M59.2663 20.8622L54.5555 16.1514L59.2663 11.4405" stroke="#6B7280" stroke-width="1.51419" stroke-linecap="round" stroke-linejoin="round"/>
<path d="M14.1771 12.7865L22.2528 12.7865M22.2528 12.7865L19.5609 10.0946M22.2528 12.7865L19.5609 15.4784M19.5609 19.5163L11.4852 19.5163M11.4852 19.5163L14.1771 22.2082M11.4852 19.5163L14.1771 16.8244" stroke="#6B7280" stroke-width="1.51419" stroke-linecap="round" stroke-linejoin="round"/>
<path d="M135.985 11.4406L140.696 16.1514L135.985 20.8622" stroke="#6B7280" stroke-width="1.51419" stroke-linecap="round" stroke-linejoin="round"/>
<path d="M172.999 10.7676V14.1325H173.39M183.725 15.4784C183.394 12.8227 181.128 10.7676 178.383 10.7676C176.123 10.7676 174.189 12.1594 173.39 14.1325M173.39 14.1325H176.364M183.766 21.5352V18.1703H183.375M183.375 18.1703C182.576 20.1434 180.642 21.5352 178.383 21.5352C175.637 21.5352 173.372 19.4801 173.04 16.8244M183.375 18.1703H180.402" stroke="#6B7280" stroke-width="1.51419" stroke-linecap="round" stroke-linejoin="round"/>
</svg>
